<?xml version="1.0" standalone="no"?>
<!DOCTYPE svg PUBLIC "-//W3C//DTD SVG 20010904//EN"
 "http://www.w3.org/TR/2001/REC-SVG-20010904/DTD/svg10.dtd">
<svg version="1.0" xmlns="http://www.w3.org/2000/svg"
 width="1563.000000pt" height="1121.000000pt" viewBox="0 0 1563.000000 1121.000000"
 preserveAspectRatio="xMidYMid meet">

<g transform="translate(0.000000,1121.000000) scale(0.100000,-0.100000)"
fill="#000000" stroke="none">
<path d="M20 8495 l0 -2495 165 0 165 0 0 2330 0 2329 5038 -2 5037 -2 3
-5037 2 -5038 -3350 0 -3350 0 0 -170 0 -170 3520 0 3520 0 0 5375 0 5375
-5375 0 -5375 0 0 -2495z"/>
<path d="M350 5356 c-153 -43 -241 -153 -240 -300 2 -158 89 -230 364 -301 77
-20 153 -43 170 -52 80 -40 116 -108 96 -183 -22 -81 -97 -135 -206 -146 -153
-16 -281 60 -300 179 l-7 37 -70 0 -70 0 6 -49 c19 -162 153 -283 333 -300
166 -16 297 22 378 109 25 26 52 65 61 86 25 61 30 151 12 215 -34 115 -109
165 -347 230 -237 64 -275 90 -275 187 0 71 25 110 92 143 70 33 198 34 266 0
54 -26 92 -76 102 -133 l7 -38 70 0 71 0 -7 52 c-10 73 -60 163 -114 204 -64
49 -155 74 -261 73 -47 0 -106 -6 -131 -13z"/>
<path d="M4346 5148 c-75 -78 -136 -148 -136 -155 0 -10 20 -13 74 -13 l74 0
4 -262 c3 -243 5 -266 24 -308 51 -108 129 -152 282 -158 l102 -4 0 59 0 60
-80 6 c-87 6 -129 24 -164 70 -20 27 -21 42 -24 283 l-3 254 136 0 136 0 -3
63 -3 62 -132 3 -133 3 0 84 c0 46 -4 86 -9 89 -5 4 -70 -58 -145 -136z"/>
<path d="M1380 5104 c-47 -17 -117 -61 -139 -88 -22 -26 -29 -19 -36 34 l-7
50 -49 0 -49 0 0 -425 0 -425 65 0 65 0 0 248 c0 267 9 334 52 396 103 145
281 138 352 -14 19 -42 21 -65 24 -337 l4 -293 64 0 64 0 0 268 c0 313 5 338
79 412 103 103 252 86 312 -37 23 -47 24 -56 27 -345 l3 -298 63 0 63 0 5 78
c3 42 3 190 -1 327 -7 282 -13 307 -88 382 -63 63 -103 78 -213 78 -111 0
-151 -16 -235 -96 l-51 -48 -43 50 c-60 69 -108 92 -206 96 -56 2 -93 -2 -125
-13z"/>
<path d="M2838 5101 c-169 -55 -278 -190 -297 -367 -27 -237 101 -431 324
-490 136 -37 305 2 404 91 21 19 41 32 45 28 3 -3 6 -23 6 -44 0 -63 6 -69 66
-69 l54 0 0 425 0 425 -54 0 -54 0 -7 -52 c-4 -29 -9 -56 -11 -60 -3 -4 -19 7
-37 24 -17 17 -66 47 -107 66 -69 34 -83 37 -175 39 -77 2 -113 -1 -157 -16z
m265 -131 c73 -27 130 -79 164 -148 24 -50 28 -69 28 -147 0 -70 -5 -100 -21
-136 -31 -66 -78 -114 -142 -146 -49 -24 -69 -28 -142 -28 -73 0 -93 4 -142
28 -65 32 -122 90 -151 156 -26 59 -28 166 -3 238 29 87 113 165 206 194 49
15 148 9 203 -11z"/>
<path d="M5188 5105 c-250 -69 -380 -381 -263 -630 127 -267 491 -329 702
-119 34 35 93 128 93 149 0 3 -29 5 -65 5 -64 0 -65 -1 -106 -45 -23 -24 -66
-57 -97 -72 -47 -23 -68 -27 -136 -27 -130 1 -212 49 -265 156 -54 107 -84 97
332 100 l362 3 -1 86 c-1 75 -5 95 -33 154 -58 124 -146 205 -260 239 -65 19
-196 20 -263 1z m269 -142 c69 -32 129 -109 149 -190 l6 -23 -297 0 -296 0 6
23 c24 79 84 155 150 189 74 38 203 39 282 1z"/>
<path d="M3996 5093 c-50 -15 -121 -57 -145 -87 -19 -23 -28 -12 -36 44 l-7
50 -49 0 -49 0 0 -425 0 -425 70 0 70 0 0 268 c0 303 5 334 67 396 44 44 112
66 200 66 l63 0 0 65 0 65 -67 -1 c-38 0 -90 -7 -117 -16z"/>
<path d="M5950 4681 l0 -431 70 0 70 0 0 270 c0 298 4 324 64 388 47 51 81 64
178 70 l88 5 0 65 0 64 -87 -4 c-107 -6 -177 -33 -228 -89 -39 -43 -35 -47
-53 46 -8 39 -9 40 -55 43 l-47 3 0 -430z"/>
<path d="M3070 3580 l0 -80 70 0 70 0 0 80 0 80 -70 0 -70 0 0 -80z"/>
<path d="M170 3055 l0 -555 310 0 310 0 0 65 0 65 -240 0 -240 0 -2 488 -3
487 -67 3 -68 3 0 -556z"/>
<path d="M1195 3349 c-187 -64 -295 -220 -295 -425 0 -256 191 -444 451 -444
175 0 338 101 412 257 31 65 32 74 32 189 0 118 -1 121 -37 195 -59 120 -158
202 -282 235 -77 21 -209 17 -281 -7z m271 -126 c70 -24 154 -110 177 -182 52
-164 -10 -329 -151 -398 -77 -38 -200 -40 -277 -5 -66 30 -129 93 -156 156
-33 76 -32 191 3 268 33 71 95 131 161 157 66 25 175 27 243 4z"/>
<path d="M2233 3356 c-137 -45 -243 -158 -279 -298 -52 -200 43 -406 225 -492
56 -26 81 -31 163 -34 118 -5 195 17 277 79 l54 41 -5 -75 c-6 -91 -42 -172
-96 -217 -128 -105 -372 -66 -442 71 l-20 39 -65 0 c-36 0 -65 -4 -65 -10 0
-30 56 -126 97 -168 91 -91 229 -132 375 -112 176 25 300 137 338 305 12 52
17 858 6 863 -3 1 -24 2 -45 2 l-39 0 -7 -52 c-4 -29 -9 -57 -12 -61 -3 -4
-23 9 -45 29 -22 20 -70 50 -107 67 -58 28 -78 32 -166 34 -64 2 -115 -2 -142
-11z m249 -132 c101 -34 176 -135 186 -250 9 -118 -45 -222 -146 -282 -43 -25
-56 -27 -147 -27 -113 0 -137 9 -211 77 -77 71 -105 202 -67 314 21 63 102
145 163 167 59 20 164 21 222 1z"/>
<path d="M3728 3357 c-25 -8 -72 -29 -103 -48 -196 -117 -268 -376 -165 -586
130 -263 498 -325 705 -118 46 47 105 144 105 174 0 7 -27 11 -69 11 -62 0
-70 -2 -76 -21 -12 -36 -76 -99 -129 -126 -236 -120 -500 103 -432 365 37 145
143 231 287 232 114 0 205 -46 261 -131 l31 -48 61 6 c34 3 63 7 65 9 2 2 -10
33 -28 68 -41 83 -128 166 -208 197 -71 27 -233 36 -305 16z"/>
<path d="M3079 3098 c-2 -139 -2 -331 0 -425 l3 -173 64 0 64 0 0 425 0 425
-64 0 -64 0 -3 -252z"/>
<path d="M11731 1995 c-112 -21 -193 -65 -281 -154 -115 -116 -160 -228 -160
-396 0 -167 49 -287 164 -400 111 -110 226 -155 391 -155 49 0 115 7 145 15
144 38 271 140 335 267 52 105 51 108 -44 108 l-79 0 -32 -49 c-42 -66 -100
-117 -169 -150 -49 -22 -69 -26 -156 -26 -93 0 -105 2 -167 33 -83 40 -158
119 -190 200 -18 47 -23 76 -23 162 0 99 2 109 33 172 40 82 104 148 179 184
79 39 211 46 296 16 77 -28 146 -80 192 -147 l38 -55 79 0 c57 0 78 3 78 13 0
7 -16 46 -35 86 -100 209 -346 323 -594 276z"/>
<path d="M12994 2001 c-173 -28 -334 -140 -412 -287 -57 -110 -78 -267 -51
-396 40 -193 202 -361 399 -413 73 -20 236 -19 314 1 192 49 351 211 397 404
16 67 16 207 0 275 -30 124 -127 261 -238 331 -106 69 -281 105 -409 85z m266
-197 c82 -39 145 -101 184 -184 29 -60 31 -73 31 -175 0 -98 -3 -116 -27 -167
-37 -80 -107 -152 -187 -191 -61 -30 -72 -32 -171 -32 -140 1 -200 24 -286
109 -84 84 -108 146 -108 281 0 123 23 190 91 265 87 96 172 131 313 127 82
-2 104 -7 160 -33z"/>
<path d="M14332 1999 c-75 -13 -153 -52 -216 -110 l-54 -50 -12 58 c-17 87
-13 83 -80 83 l-60 0 0 -535 0 -535 84 0 85 0 3 343 c3 328 4 344 26 398 81
202 309 265 434 120 63 -74 68 -110 68 -509 l0 -352 85 0 84 0 3 353 3 352 26
56 c64 137 196 205 326 168 61 -17 114 -71 144 -145 22 -57 23 -72 27 -421 l4
-363 80 0 79 0 -3 408 -3 407 -32 67 c-17 37 -51 87 -75 111 -149 148 -406
134 -568 -33 l-59 -59 -21 33 c-48 79 -137 137 -235 155 -65 12 -68 12 -143 0z"/>
<path d="M2780 1330 l0 -580 54 0 53 0 7 61 7 60 39 -35 c98 -89 249 -125 392
-95 131 28 237 112 296 237 30 63 36 86 40 168 11 205 -79 360 -253 440 -49
23 -78 28 -161 32 -121 5 -187 -11 -273 -69 l-56 -38 -5 197 -5 197 -67 3 -68
3 0 -581z m556 143 c67 -23 154 -110 177 -177 10 -29 17 -81 17 -125 0 -130
-65 -232 -179 -285 -35 -16 -66 -21 -131 -21 -73 0 -93 4 -142 28 -107 53
-159 137 -166 269 -4 77 -2 92 22 145 35 76 77 119 151 154 72 35 171 39 251
12z"/>
<path d="M66 1813 c8 -27 87 -275 177 -553 l163 -505 64 0 64 0 145 387 c80
213 149 384 152 380 4 -4 71 -173 149 -377 78 -203 145 -376 147 -382 5 -13
133 -20 133 -8 0 3 77 248 170 546 94 297 170 544 170 549 0 6 -31 10 -70 10
l-69 0 -34 -107 c-18 -60 -78 -255 -133 -435 -54 -181 -102 -328 -105 -328 -3
0 -79 190 -170 423 -163 419 -164 422 -192 422 -29 0 -30 -2 -188 -424 -88
-234 -160 -426 -162 -427 -3 -3 -217 668 -264 829 l-15 47 -73 0 -74 0 15 -47z"/>
<path d="M2008 1601 c-76 -25 -115 -50 -175 -114 -60 -64 -88 -115 -108 -199
-37 -156 1 -307 105 -421 158 -173 445 -183 614 -21 39 37 106 136 106 157 0
4 -29 7 -65 7 -64 0 -64 0 -110 -49 -64 -69 -129 -96 -230 -96 -67 0 -89 5
-137 28 -32 16 -73 46 -92 69 -32 37 -66 112 -66 145 0 10 72 13 363 15 l362
3 3 42 c8 110 -47 253 -130 336 -28 28 -77 61 -116 80 -59 28 -79 32 -167 34
-76 2 -113 -1 -157 -16z m278 -137 c70 -33 130 -108 149 -186 l7 -28 -296 0
c-230 0 -296 3 -296 13 1 53 88 165 154 199 76 39 202 40 282 2z"/>
<path d="M10900 1015 l0 -105 100 0 100 0 0 105 0 105 -100 0 -100 0 0 -105z"/>
</g>
</svg>
