<?xml version="1.0" encoding="UTF-8"?>
<svg width="512" height="512" viewBox="0 0 512 512" xmlns="http://www.w3.org/2000/svg" role="img" aria-label="smarterlogicweb icon">
  <defs>
    <linearGradient id="g" x1="0" y1="0" x2="1" y2="1">
      <stop offset="0%" stop-color="#2f7e6b"/>
      <stop offset="100%" stop-color="#e66886"/>
    </linearGradient>
  </defs>
  <rect width="512" height="512" rx="112" fill="url(#g)"/>
  <g fill="#ffffff">
    <path d="M123 330c0-20 14-34 42-42l39-11c9-3 14-7 14-13 0-8-8-12-22-12-17 0-33 6-48 17l-26-43c23-17 52-26 87-26 54 0 86 22 86 60 0 30-19 50-57 60l-34 9c-10 3-15 6-15 12h108v49H123v-60z"/>
    <path d="M348 171h55v170h-55V171z"/>
  </g>
</svg>